<?xml version="1.0" encoding="utf-8"?>
<!-- Generator: Adobe Illustrator 28.0.0, SVG Export Plug-In . SVG Version: 6.00 Build 0)  -->
<svg version="1.1" id="Layer_1" xmlns="http://www.w3.org/2000/svg" xmlns:xlink="http://www.w3.org/1999/xlink" x="0px" y="0px"
	 viewBox="0 0 800 800" style="enable-background:new 0 0 800 800;" xml:space="preserve">
<style type="text/css">
	.st0{fill:none;stroke:#2196F3;stroke-width:63.6667;stroke-miterlimit:333.3333;}
	.st1{fill:none;stroke:#2196F3;stroke-width:63.6667;stroke-linecap:square;stroke-miterlimit:333.3333;}
</style>
<g id="computer">
	<path class="st0" d="M145.3,50h509.3c52.7,0,95.3,42.7,95.3,95.3v350.3c0,52.7-42.7,95.3-95.3,95.3H145.3
		C92.7,591,50,548.3,50,495.7V145.3C50,92.7,92.7,50,145.3,50z"/>
	<polygon class="st0" points="527.3,750 272.7,750 304.7,591 495.3,591 	"/>
	<line class="st0" x1="622.7" y1="750" x2="177.3" y2="750"/>
	<path class="st1" d="M272.7,304.7L272.7,304.7c52.1,0.7,94,43.2,94,95.3v33.3l0,0H177.3l0,0V400C177.3,347.3,220,304.7,272.7,304.7
		z"/>
	<circle class="st1" cx="272.7" cy="241" r="63.7"/>
	<path class="st1" d="M654.7,433.3L654.7,433.3z"/>
	<line class="st0" x1="463.7" y1="241" x2="654.7" y2="241"/>
	<line class="st0" x1="559" y1="145.3" x2="559" y2="336.3"/>
</g>
</svg>
