<?xml version="1.0" encoding="utf-8"?>
<!-- Generator: Adobe Illustrator 28.0.0, SVG Export Plug-In . SVG Version: 6.00 Build 0)  -->
<svg version="1.1" id="Layer_1" xmlns="http://www.w3.org/2000/svg" xmlns:xlink="http://www.w3.org/1999/xlink" x="0px" y="0px"
	 viewBox="0 0 32 32" style="enable-background:new 0 0 32 32;" xml:space="preserve">
<style type="text/css">
	.st0{stroke:#FFFFFF;stroke-miterlimit:10;}
	.st1{fill:none;}
</style>
<path id="prescription_1_" class="st0" d="M28,31.4H4c-0.2,0-0.4-0.2-0.4-0.4V1c0-0.2,0.2-0.4,0.4-0.4h18c0.1,0,0.2,0,0.3,0.1l6,6
	c0.1,0.1,0.1,0.2,0.1,0.3v24C28.4,31.2,28.2,31.4,28,31.4z M4.4,30.6h23.3V7.4H22c-0.2,0-0.4-0.2-0.4-0.4V1.4H4.4V30.6z M22.4,6.6
	h4.8l-4.8-4.8V6.6z M20,27.4H8v-0.7h12V27.4z M24,23.4H8v-0.7h16V23.4z M24,19.4H8v-0.7h16V19.4z M16.3,9.3l-0.5-0.5L13,11.5
	l-2.3-2.3C11.7,8.9,12.4,8,12.4,7c0-1.3-1.1-2.4-2.4-2.4H7.6V13h0.7V9.4h1.5l2.6,2.6l-2.7,2.7l0.5,0.5l2.7-2.7l2.7,2.7l0.5-0.5
	L13.5,12L16.3,9.3z M8.4,8.6V5.4H10c0.9,0,1.6,0.7,1.6,1.6S10.9,8.6,10,8.6H8.4z"/>
<rect id="_Transparent_Rectangle" y="0" class="st1" width="32" height="32"/>
</svg>
