<?xml version="1.0" encoding="utf-8"?>
<!-- Generator: Adobe Illustrator 28.0.0, SVG Export Plug-In . SVG Version: 6.00 Build 0)  -->
<svg version="1.1" id="Layer_1" xmlns="http://www.w3.org/2000/svg" xmlns:xlink="http://www.w3.org/1999/xlink" x="0px" y="0px"
	 viewBox="0 0 800 800" style="enable-background:new 0 0 800 800;" xml:space="preserve">
<style type="text/css">
	.st0{fill:none;stroke:#FFFFFF;stroke-width:63.6667;stroke-miterlimit:333.3333;}
</style>
<g id="medical_center">
	<line class="st0" x1="304.7" y1="241" x2="495.3" y2="241"/>
	<line class="st0" x1="400" y1="145.3" x2="400" y2="336.3"/>
	<line class="st0" x1="304.7" y1="495.3" x2="368.3" y2="495.3"/>
	<line class="st0" x1="431.7" y1="495.3" x2="495.3" y2="495.3"/>
	<line class="st0" x1="177.3" y1="495.3" x2="241" y2="495.3"/>
	<line class="st0" x1="177.3" y1="622.7" x2="241" y2="622.7"/>
	<line class="st0" x1="559" y1="495.3" x2="622.7" y2="495.3"/>
	<line class="st0" x1="559" y1="622.7" x2="622.7" y2="622.7"/>
	<path class="st0" d="M463.7,750H750V433.3L622.7,304.7v-33.3C621.9,148.9,522.5,50,400,50l0,0c-123,0-222.7,99.7-222.7,222.7l0,0
		V306L50,433.3V750h286.3V622.7h127.3V750z"/>
</g>
</svg>
