<?xml version="1.0" encoding="utf-8"?>
<!-- Generator: Adobe Illustrator 28.0.0, SVG Export Plug-In . SVG Version: 6.00 Build 0)  -->
<svg version="1.1" id="_x32_" xmlns="http://www.w3.org/2000/svg" xmlns:xlink="http://www.w3.org/1999/xlink" x="0px" y="0px"
	 viewBox="0 0 800 800" style="enable-background:new 0 0 800 800;" xml:space="preserve">
<style type="text/css">
	.st0{fill:#FFFFFF;stroke:#FFFFFF;stroke-miterlimit:10;}
	.st1{fill:#FFFFFF;stroke:#FFFFFF;stroke-width:13;stroke-miterlimit:10;}
</style>
<g>
	<g>
		<path class="st0" d="M662.1,558.1c-2.7-9.5-6.5-18-11.2-25.5c-8.2-13.3-19.2-23.6-31.3-31.7c-9-6.2-18.7-11.1-28.5-15.5
			c-14.8-6.5-29.8-11.4-43.7-16.2c-13.9-4.8-26.6-9.5-36.5-14.9c-3.6-2-6.9-4.1-9.7-6.3c-4.2-3.3-7.5-6.8-9.9-10.7
			c-2.4-3.9-4-8.3-4.6-13.8c-0.4-3.9-0.6-7.6-0.6-11.1c0-10.4,1.6-19.5,3.7-28.6c6.2-6.6,11.9-14.4,17.3-23.7
			c5.4-9.4,10.5-20.4,15.6-33.4c3.3-1.4,6.6-3.1,9.8-5.1c7.3-4.6,14.3-11.1,20.1-19.6c5.8-8.6,10.5-19.3,13.7-32.4
			c0.9-3.7,1.3-7.3,1.3-10.9c0-7.5-1.9-14.6-5.1-20.9c-2.2-4.4-5-8.5-8.3-12.1c1.7-5.7,3.7-13.5,5.5-22.5
			c2.5-12.6,4.5-27.6,4.5-43.5c0-10.2-0.9-20.8-3.1-31.2c-1.7-7.8-4.1-15.6-7.6-23c-5.2-11.2-12.7-21.7-23.2-30.4
			c-9.7-8.1-21.9-14.5-36.6-18.6c-6.2-6.9-12.6-12.8-19.3-17.8c-11.2-8.3-22.9-13.9-34.9-17.3c-12-3.4-24.1-4.6-36.2-4.6
			c-6.4,0-12.8,0.4-19.1,0.9c-6,0.5-11,1.1-15.4,1.8c-6.6,1-12.1,2.4-17.4,4.2c-5.3,1.7-10.5,3.7-17.2,6.2c-2.5,0.9-5.9,2.3-9.9,4.2
			c-7.1,3.3-16.1,8.2-25.8,15C284,58.9,268,73.2,255.4,92.6c-6.3,9.7-11.6,20.7-15.4,33c-3.8,12.3-6,25.8-6,40.7
			c0,9.2,0.8,19,2.7,29.2c0,0.7,0,1.4,0.1,2.1c0.1,1.3,0.2,2.6,0.4,4c0.2,2,0.5,4.1,0.7,5.9c0.1,0.9,0.2,1.7,0.2,2.3
			c0,0.3,0.1,0.6,0.1,0.7l0,0.2v0.1v1.2l2.7,11.1c-3.9,3.9-7.2,8.3-9.8,13.2c-3.6,6.7-5.8,14.3-5.7,22.3c0,3.5,0.4,7.2,1.3,10.8l0,0
			c2.1,8.8,4.9,16.5,8.2,23.1c5,10,11.4,17.8,18.4,23.7c5.4,4.6,11.2,7.9,17,10.4c5.1,13,10.2,24,15.6,33.4
			c5.4,9.4,11.1,17.2,17.3,23.7c2.1,9.2,3.7,18.3,3.7,28.7c0,3.5-0.2,7.2-0.6,11.1c-0.4,3.8-1.3,7-2.6,10c-1.9,4.4-4.7,8.2-8.5,11.7
			c-3.8,3.5-8.6,6.8-14.4,9.8c-5.8,3.1-12.6,5.9-19.9,8.7c-12.8,4.9-27.5,9.5-42.4,15c-11.1,4.2-22.4,8.9-33.2,14.8
			c-8.1,4.4-15.8,9.6-23,15.7c-10.7,9.2-19.9,20.6-26.3,34.7c-6.4,14.1-9.9,30.9-9.9,50.6c0,2.8,0.6,5.5,1.6,7.9
			c1,2.3,2.3,4.4,3.8,6.4c2.9,3.7,6.7,7.1,11.4,10.3c8.1,5.6,19,10.9,33,15.8c21,7.4,49.2,14,85.6,18.9c36.4,4.8,81.1,7.8,134.9,7.8
			c46.7,0,86.4-2.3,119.9-6c25.1-2.8,46.7-6.5,65-10.7c13.7-3.1,25.6-6.6,35.9-10.2c7.7-2.7,14.4-5.6,20.2-8.5
			c4.4-2.2,8.3-4.4,11.7-6.7c5.1-3.5,9.2-7.1,12.4-11.1c1.6-2,2.8-4.2,3.8-6.5c0.9-2.3,1.5-4.9,1.5-7.5
			C666.9,581,665.2,568.9,662.1,558.1z M492.4,468.1l-67.5,98.5l-7.5-48.3l19.1-19L424.1,480l52.3-25.7c1.5,1.7,3,3.4,4.6,5
			C484.5,462.6,488.4,465.5,492.4,468.1z M305.8,349.9c-5.3-9.2-10.6-20.6-15.9-34.9l-1.8-4.6l-5-1.7c-3.5-1.2-6.8-2.7-10-4.7
			c-4.8-3.1-9.5-7.2-13.7-13.4c-4.2-6.2-8-14.5-10.7-25.8l0,0c-0.5-2.1-0.8-4.2-0.8-6.2c0-4.5,1.2-8.8,3.4-12.9
			c1.8-3.4,4.4-6.6,7.4-9.5c5.2,7.3,9.5,13.1,11,14.6c5.1,4.7,5.8-6.4,3.4-19c-4.5-23,7.5-12.6,38-67.9
			c60.8,12.6,167.2-47.8,167.2-47.8s1.3,27.6,21.6,52.8c19.3,24,30.2,80.3,30.2,80.3s2.6-4.6,6.5-10.9c2.3,2.6,4.3,5.3,5.7,8.2
			c1.9,3.8,2.9,7.9,2.9,12.1c0,2-0.3,4.1-0.8,6.2c-1.8,7.5-4.1,13.7-6.7,18.9c-3.9,7.7-8.3,13-13,16.9c-4.7,3.9-9.6,6.4-14.8,8.2
			l-5,1.7l-1.8,4.7c-5.4,14.3-10.7,25.7-16,34.9c-5.3,9.2-10.6,16.1-16,21.5l-2.1,2.1l-0.7,2.9c-2.5,10.5-4.9,22.1-4.9,35.9
			c0,4.3,0.2,8.7,0.7,13.3c0.6,5.5,1.9,10.6,3.9,15.3c0.1,0.2,0.2,0.4,0.3,0.7l-68.5,33.6l-75.9-32.9c2.3-5.1,3.9-10.7,4.6-16.7l0,0
			c0.5-4.6,0.7-9.1,0.7-13.3c0-13.7-2.4-25.4-4.9-35.9l-0.7-2.8l-2.2-2.1C316.4,366,311.1,359.1,305.8,349.9z M305.2,465
			c3.9-3,7.6-6.3,10.8-10l57.9,25.1l-12.4,19.2l19.1,19l-7.1,45.5l-73.8-95.1C301.6,467.5,303.4,466.3,305.2,465z M643.8,595.6
			c-0.8,1.2-2.5,3.2-5.5,5.4c-2.6,2-6.1,4.1-10.5,6.4c-7.7,3.9-18.1,8.1-31.4,11.9c-19.9,5.9-46.1,11.2-79.3,15.1
			c-33.1,3.9-73.1,6.3-120.6,6.3c-45.9,0-84.8-2.2-117.2-5.9c-24.3-2.7-45.1-6.3-62.4-10.2c-13-3-24-6.2-33.2-9.4
			c-6.9-2.5-12.8-4.9-17.6-7.3c-3.6-1.8-6.7-3.6-9.1-5.3c-3.7-2.5-6.1-4.7-7.2-6.3c-0.6-0.8-0.9-1.3-1-1.6c0-0.1-0.1-0.2-0.1-0.2
			c0-11.8,1.4-21.9,3.9-30.7c2.2-7.7,5.2-14.3,8.8-20.2c6.4-10.3,14.7-18.4,24.6-25.2c7.4-5.1,15.7-9.5,24.5-13.4
			c13.2-5.9,27.5-10.6,41.5-15.5c11.8-4.1,23.4-8.2,34.1-13.2l116.6,150.2L506,475.7c5.2,2.5,10.5,4.8,16,6.9
			c13.9,5.3,28.6,9.9,42.9,15.2c10.7,3.9,21.1,8.2,30.5,13.4c7.1,3.9,13.7,8.2,19.5,13.1c8.8,7.4,16,16.2,21.1,27.5
			c5.1,11.3,8.3,25.1,8.3,42.7C644.3,594.5,644.2,594.9,643.8,595.6z"/>
		<rect x="480.9" y="582.5" class="st0" width="90.2" height="14.8"/>
	</g>
	<line class="st1" x1="120.9" y1="694.4" x2="692" y2="694.4"/>
	<line class="st1" x1="120.9" y1="735.6" x2="692" y2="735.6"/>
	<line class="st1" x1="120.9" y1="783.6" x2="692" y2="783.6"/>
</g>
</svg>
