<?xml version="1.0" encoding="utf-8"?>
<!-- Generator: Adobe Illustrator 28.0.0, SVG Export Plug-In . SVG Version: 6.00 Build 0)  -->
<svg version="1.1" id="doctor" xmlns="http://www.w3.org/2000/svg" xmlns:xlink="http://www.w3.org/1999/xlink" x="0px" y="0px"
	 viewBox="0 0 800 800" style="enable-background:new 0 0 800 800;" xml:space="preserve">
<style type="text/css">
	.st0{fill:#2196F3;}
</style>
<path class="st0" d="M293.3,373.3C219.7,373.3,160,313.6,160,240l0,0V133.3c0-14.7,11.9-26.7,26.7-26.7h26.7
	c14.7,0,26.7-11.9,26.7-26.7s-11.9-26.7-26.7-26.7h-26.7c-44.2,0-80,35.8-80,80V240c0.1,61.2,30.2,118.4,80.5,153.1l0,0
	c48.2,42.5,76.9,102.8,79.5,166.9c0,103.1,83.6,186.7,186.7,186.7S640,663.1,640,560v-30.4c57-14.7,91.3-72.9,76.6-129.9
	c-14.7-57-72.9-91.3-129.9-76.6c-57,14.7-91.3,72.9-76.6,129.9c9.7,37.6,39,66.9,76.6,76.6V560c0,73.6-59.7,133.3-133.3,133.3
	S320,633.6,320,560c2.7-64.2,31.6-124.6,80-166.9l0,0c50.2-34.8,80.1-92,80-153.1V133.3c0-44.2-35.8-80-80-80h-26.7
	c-14.7,0-26.7,11.9-26.7,26.7s11.9,26.7,26.7,26.7H400c14.7,0,26.7,11.9,26.7,26.7V240l0,0C426.7,313.6,367,373.3,293.3,373.3
	 M613.3,480c-29.5,0-53.3-23.9-53.3-53.3s23.9-53.3,53.3-53.3c29.5,0,53.3,23.9,53.3,53.3C666.7,456.1,642.8,480,613.3,480z"/>
</svg>
