<?xml version="1.0" encoding="utf-8"?>
<!-- Generator: Adobe Illustrator 28.0.0, SVG Export Plug-In . SVG Version: 6.00 Build 0)  -->
<svg version="1.1" id="goal" xmlns="http://www.w3.org/2000/svg" xmlns:xlink="http://www.w3.org/1999/xlink" x="0px" y="0px"
	 viewBox="0 0 800 800" style="enable-background:new 0 0 800 800;" xml:space="preserve">
<style type="text/css">
	.st0{fill:#FFFFFF;}
</style>
<path id="secondary" class="st0" d="M730.7,187.3c-5.1-12.4-17.2-20.6-30.7-20.7h-66.7V100c-0.1-13.5-8.2-25.6-20.7-30.7
	c-12.4-5.2-26.7-2.5-36.3,7l-100,100c-6.2,6.3-9.7,14.8-9.7,23.7v86.3L393,359.7c-13.1,13-13.2,34.1-0.2,47.1
	c0.1,0.1,0.1,0.1,0.2,0.2c13,13.1,34.1,13.2,47.1,0.2c0.1-0.1,0.1-0.1,0.2-0.2l73.3-73.7H600c8.9,0.1,17.4-3.4,23.7-9.7l100-100
	C733.1,214.1,735.9,199.7,730.7,187.3z"/>
<path id="primary" class="st0" d="M400,733.3C215.9,733.3,66.7,584.1,66.7,400S215.9,66.7,400,66.7h14c18.4,1.7,32,17.9,30.3,36.3
	s-17.9,32-36.3,30.3h-8c-147.3,0-266.7,119.4-266.7,266.7S252.7,666.7,400,666.7S666.7,547.3,666.7,400c0.2-2.7,0.2-5.3,0-8
	c-1.7-18.3,11.7-34.6,30.1-36.3c0.1,0,0.2,0,0.3,0c18.3-1.7,34.6,11.7,36.3,30.1c0,0.1,0,0.2,0,0.3c0,4.7,0,9.3,0,14
	C733.3,584.1,584.1,733.3,400,733.3z M596,440c3.7-18.4-8.3-36.3-26.7-40c-18.4-3.7-36.3,8.3-40,26.7
	c-14.6,72.2-84.9,118.9-157.1,104.3C300,516.3,253.4,446,268,373.8c10.7-53,52.3-94.2,105.4-104.5c18.4-3.7,30.3-21.6,26.7-40
	c-3.7-18.4-21.6-30.3-40-26.7c-108.2,22.1-178,127.8-155.9,236s127.8,178,236,155.9c78.5-16,139.9-77.4,155.9-155.9V440z"/>
</svg>
