<?xml version="1.0" encoding="utf-8"?>
<!-- Generator: Adobe Illustrator 28.0.0, SVG Export Plug-In . SVG Version: 6.00 Build 0)  -->
<svg version="1.1" id="Layer_1" xmlns="http://www.w3.org/2000/svg" xmlns:xlink="http://www.w3.org/1999/xlink" x="0px" y="0px"
	 viewBox="0 0 800 800" style="enable-background:new 0 0 800 800;" xml:space="preserve">
<style type="text/css">
	.st0{fill:#FFFFFF;}
</style>
<g>
	<g>
		<g>
			<path class="st0" d="M272.2,165.2c1.7-7.7,2.7-16.9,2.7-28.3c0-51.1-42.2-92.3-42.2-92.3s-42.2,41.4-42.2,92.3
				c0,11.4,0.9,20.6,2.7,28.3H272.2z"/>
		</g>
		<g>
			<g>
				<path class="st0" d="M325.3,217.2c-5.9,8.3-15.6,13.6-26.4,13.8L292.5,462l-0.2,4.5c118.1,19.1,232.2-97.3,351.9-30.8V184.4
					C535.6,123.9,431.9,214.1,325.3,217.2z M523.8,344.5h-37.8v37.8h-57v-37.8h-37.8v-57h37.8v-37.8h57v37.8h37.8V344.5z"/>
			</g>
		</g>
		<path class="st0" d="M309.5,198c0-6.1-4.8-10.9-10.9-10.9H166.7c-6.1,0-10.9,4.8-10.9,10.9c0,6.1,4.8,10.9,10.9,10.9h21.1
			l16.1,546.6h57.5l9.2-294.2l6.9-249.4l0.2-3h21.1C304.7,208.9,309.5,204.1,309.5,198z M243.6,289.2c0,6.1-4.8,10.9-10.9,10.9
			c-6.1,0-10.9-4.8-10.9-10.9v-1.4c0-6.1,4.8-10.9,10.9-10.9c6.1,0,10.9,4.8,10.9,10.9V289.2z M243.6,248.1
			c0,6.1-4.8,10.9-10.9,10.9c-6.1,0-10.9-4.8-10.9-10.9v-39.2h21.9V248.1z"/>
	</g>
</g>
</svg>
