<?xml version="1.0" encoding="utf-8"?>
<!-- Generator: Adobe Illustrator 28.0.0, SVG Export Plug-In . SVG Version: 6.00 Build 0)  -->
<svg version="1.1" id="Layer_1" xmlns="http://www.w3.org/2000/svg" xmlns:xlink="http://www.w3.org/1999/xlink" x="0px" y="0px"
	 viewBox="0 0 800 800" style="enable-background:new 0 0 800 800;" xml:space="preserve">
<style type="text/css">
	.st0{fill:#2196F3;}
</style>
<path class="st0" d="M231.2,200c-3.4,0-6.2,2.8-6.2,6.2v37.5c0,3.4,2.8,6.2,6.2,6.2h300c3.4,0,6.2-2.8,6.2-6.2v-37.5
	c0-3.4-2.8-6.2-6.2-6.2H231.2z M381.2,356.2v-37.5c0-3.4-2.8-6.2-6.2-6.2H231.2c-3.4,0-6.2,2.8-6.2,6.2v37.5c0,3.4,2.8,6.2,6.2,6.2
	H375C378.4,362.5,381.2,359.7,381.2,356.2z M343.8,665.6H162.5v-550H600v268.8c0,3.4,2.8,6.2,6.2,6.2H650c3.4,0,6.2-2.8,6.2-6.2
	v-300c0-13.8-11.2-25-25-25h-500c-13.8,0-25,11.2-25,25v612.5c0,13.8,11.2,25,25,25h212.5c3.4,0,6.2-2.8,6.2-6.2v-43.8
	C350,668.4,347.2,665.6,343.8,665.6z M425.1,575.3c1.4-27,12.7-52.2,31.9-71.4c20.5-20.5,48.4-32,77.4-32c29.2,0,56.7,11.4,77.4,32
	c2.5,2.5,4.9,5.2,7.2,7.9l-18,14c-2.7,2.1-3.2,6-1.1,8.8c0.9,1.1,2.1,1.9,3.5,2.2l72.9,17.6c3.9,0.9,7.7-2,7.7-6l0.5-74.5
	c0-3.5-2.7-6.3-6.2-6.3c-1.4,0-2.8,0.4-3.9,1.3l-15.9,12.3c-29.2-36.2-74-59.3-124.1-59.3c-85.9,0-155.9,67.9-159.4,152.9
	c-0.2,3.5,2.7,6.5,6.2,6.5h37.6C422.2,581.2,424.9,578.7,425.1,575.3z M687.5,581.2h-37.6c-3.4,0-6.1,2.6-6.2,5.9
	c-1.4,27-12.7,52.2-31.9,71.4c-20.5,20.5-48.4,32-77.4,32c-29.2,0-56.7-11.4-77.4-32c-2.5-2.5-4.9-5.2-7.2-7.9l18-14
	c2.7-2.1,3.2-6,1.1-8.8c-0.9-1.1-2.1-1.9-3.5-2.2l-72.9-17.6c-3.9-0.9-7.7,2-7.7,6l-0.5,74.5c0,3.5,2.7,6.3,6.2,6.3
	c1.4,0,2.8-0.4,3.9-1.3l15.9-12.3c29.2,36.2,74,59.3,124.1,59.3c85.9,0,155.9-67.9,159.4-152.9C693.9,584.2,691,581.2,687.5,581.2z"
	/>
</svg>
