<?xml version="1.0" encoding="utf-8"?>
<!-- Generator: Adobe Illustrator 28.0.0, SVG Export Plug-In . SVG Version: 6.00 Build 0)  -->
<svg version="1.1" id="earth" xmlns="http://www.w3.org/2000/svg" xmlns:xlink="http://www.w3.org/1999/xlink" x="0px" y="0px"
	 viewBox="0 0 800 800" style="enable-background:new 0 0 800 800;" xml:space="preserve">
<style type="text/css">
	.st0{fill:#FFFFFF;}
</style>
<path id="Layer_1_1_" class="st0" d="M691.9,565l-180,41.3c-1.2,8.7-5,18.1-10.6,25.6c-10.6,16.2-26.9,28.1-45.6,33.1
	c-18.8,4.4-38.8,1.2-55-10l-155-98.8c-7.5-4.4-8.8-13.1-4.4-20c4.4-6.9,13.1-8.7,19.4-4.4l155.6,98.8c20.6,12.5,47.5,6.9,60.6-13.1
	c13.1-20,6.9-47.5-13.1-60.6L270,434.4c-31.9-20-68.8-35.6-103.8-18.1L5.6,507.5L6.2,685l114.4-79.4c18.1-4.4,38.1-0.6,55,10l135,85
	c33.1,20.6,73.8,25.6,108.8,16.3L711.9,650c23.1-5,38.8-28.1,33.1-53.1C738.8,574.4,715.6,560,691.9,565z M566.2,518.1
	c135-8.1,237.5-124.4,228.8-259.4C786.9,123.7,670.6,21.2,535.6,30c-135,8.1-237.5,124.4-228.8,259.4
	C315,423.8,431.2,526.2,566.2,518.1z M496.2,223.8c-6.9-13.1,12.5-20.6,22.5-30.6c12.5-13.1,39.4-35,36.2-43.1
	c-3.1-8.8-30.6-33.1-45.6-27.5c-3.1,0-20.6,19.4-24.4,22.5c0-6.9-1.2-10.6-1.2-16.9c0-4.4-8.8-8.1-8.1-11.3
	c0.6-7.5,19.4-21.9,23.8-27.5c-3.8-2.5-16.2-11.3-19.4-10c-8.1,4.4-18.1,7.5-26.9,11.3c0-3.1-0.6-6.2-1.2-8.1
	c16.9-8.8,35-15,53.8-19.4l16.9,6.2L535,82.5l12.5,11.9c0,0,7.5,3.1,10.6,3.1c3.8-0.6,15.6-16.2,15.6-16.2l-5-11.9l-0.6-10.6
	c33.8,3.1,65,13.1,93.1,30.6c-4.4,0.6-10.6,1.2-16.2,3.1c-2.5-1.2-15.6,1.2-15,6.9c0.6,4.4,23.8,23.1,33.8,39.4
	c10,16.9,38.1,27.5,43.1,46.3c5,21.9-3.1,50,0.6,76.2c3.8,25.6,31.9,52.5,31.9,52.5s12.5,3.8,22.5,1.2
	c-7.5,38.1-24.4,73.1-50.6,103.1c-29.4,33.1-66.2,56.2-108.1,66.3c5-15,15-29.4,24.4-37.5c8.1-7.5,18.1-20.6,21.9-30.6
	c3.8-10.6,8.8-19.4,15-29.4c7.5-13.1-23.1-31.9-33.1-35c-22.5-8.1-39.4-19.4-58.8-31.9c-14.4-8.8-57.5,11.2-73.8,5
	c-21.9-8.1-29.4-15-48.8-27.5c-20-13.1-14.4-41.2-15.6-61.9c15,0,35.6-6.2,46.2,5c3.1,3.8,15,19.4,21.9,13.1
	C510,246.9,498.8,228.1,496.2,223.8z M376.2,146.9c1.2,10.6,6.9,18.8,6.9,26.2c0,29.4-2.5,46.9,16.2,70c7.5,8.8,10,22.5,13.1,33.8
	c3.8,10.6,16.2,15.6,25.6,21.9c18.1,11.9,35.6,26.9,55,37.5c12.5,6.9,20,10.6,18.1,25.6c-2.5,11.9-2.5,19.4-8.1,30.6
	c-1.2,3.8,8.8,23.7,11.9,26.3c10,8.1,19.4,16.3,30,23.8c16.2,11.9,0,29.4-6.2,47.5c-47.5-3.1-93.1-21.9-130-53.8
	c-43.1-38.1-68.8-91.2-72.5-148.1C332.5,235.6,345,187.5,376.2,146.9z"/>
</svg>
