<?xml version="1.0" encoding="utf-8"?>
<!-- Generator: Adobe Illustrator 28.0.0, SVG Export Plug-In . SVG Version: 6.00 Build 0)  -->
<svg version="1.1" id="Layer_1" xmlns="http://www.w3.org/2000/svg" xmlns:xlink="http://www.w3.org/1999/xlink" x="0px" y="0px"
	 viewBox="0 0 800 800" style="enable-background:new 0 0 800 800;" xml:space="preserve">
<style type="text/css">
	.st0{fill:#FFFFFF;}
	.st1{fill:#1B3954;}
	.st2{fill:#2196F3;}
</style>
<ellipse class="st0" cx="417.4" cy="268" rx="178.3" ry="175.7"/>
<polygon class="st1" points="510.2,227.5 510.2,305.3 458.4,305.3 458.4,357 380.6,357 380.6,305.3 328.9,305.3 328.9,227.5 
	380.6,227.5 380.6,175.8 458.4,175.8 458.4,227.5 "/>
<polygon class="st2" points="510.2,227.5 510.2,305.3 458.4,305.3 458.4,357 380.6,357 380.6,305.3 328.9,305.3 328.9,227.5 
	380.6,227.5 380.6,175.8 458.4,175.8 458.4,227.5 "/>
<path class="st0" d="M614.1,381.4c20-33.8,31.4-73,31.4-115c0-124.8-101.2-225.9-225.9-225.9c-124.8,0-225.9,101.3-225.9,225.9
	c0,0.5,0,1.1,0,1.6l0,0v43l-36.9,52.8c-5.3,7.5-0.8,18,8.1,19.4l28.6,4.7l15.8,138.1c1.6,13.8,11.4,25,24.8,28.6
	c24.1,6.4,67.2,14.8,126.6,14.8c0,0,8.4,150.2-31.6,190.2h74.1v-93.4c0-6.1,4.8-10.9,10.9-10.9S425,660,425,666.1v93.4h186.2
	c0,0-18.3-51.2-33.6-104.1c-15.9-55-17.8-113.1-5.5-169.2C580.2,449.2,594.7,414.1,614.1,381.4z M424.8,628.9
	c-0.2,0.6-0.3,1.4-0.6,2c-0.3,0.6-0.6,1.2-0.9,1.9c-0.5,0.6-0.8,1.1-1.4,1.7c-2,2-4.8,3.1-7.8,3.1c-0.8,0-1.4,0-2.2-0.2
	c-0.6-0.2-1.4-0.3-2-0.6s-1.2-0.6-1.9-0.9c-0.6-0.5-1.1-0.9-1.7-1.4c-0.5-0.5-0.9-1.1-1.4-1.7c-0.5-0.6-0.8-1.2-0.9-1.9
	c-0.3-0.6-0.5-1.4-0.6-2c-0.2-0.6-0.2-1.4-0.2-2.2s0-1.4,0.2-2.2c0.2-0.6,0.3-1.4,0.6-2c0.3-0.6,0.6-1.2,0.9-1.9
	c0.5-0.6,0.8-1.1,1.4-1.7c0.5-0.5,1.1-0.9,1.7-1.4c0.6-0.5,1.2-0.8,1.9-1.1c0.6-0.3,1.4-0.5,2-0.6c3.6-0.6,7.3,0.5,9.8,3
	c2,2,3.1,4.8,3.1,7.7C425,627.5,424.8,628.3,424.8,628.9z M521.1,385.9c-27.3,23.3-62.8,37.3-101.6,37.3
	c-86.1,0-156.1-69.4-156.9-155.3c0-0.5,0-1.1,0-1.6c-0.2-86.7,70.2-157,156.9-157s157,70.3,157,157
	C576.6,314.2,555,357.2,521.1,385.9z"/>
</svg>
